<?xml version="1.0" encoding="utf-8"?>
<!-- Generator: Adobe Illustrator 19.2.1, SVG Export Plug-In . SVG Version: 6.00 Build 0)  -->
<svg version="1.1" id="Layer_1" xmlns="http://www.w3.org/2000/svg" xmlns:xlink="http://www.w3.org/1999/xlink" x="0px" y="0px"
	 viewBox="0 0 93 93" style="enable-background:new 0 0 93 93;" xml:space="preserve">
<style type="text/css">
	.st0{fill:url(#SVGID_1_);stroke:#CFD1DB;stroke-miterlimit:10;}
	.st1{fill:#9A9A99;}
</style>
<linearGradient id="SVGID_1_" gradientUnits="userSpaceOnUse" x1="46.608" y1="19.7148" x2="46.608" y2="110.6873">
	<stop  offset="0" style="stop-color:#FFFFFF"/>
	<stop  offset="0.4675" style="stop-color:#F6F6F7"/>
	<stop  offset="1" style="stop-color:#E6E7E8"/>
</linearGradient>
<path class="st0" d="M75.9,87.5H17.3c-6.6,0-12-5.4-12-12V16.9c0-6.6,5.4-12,12-12h58.6c6.6,0,12,5.4,12,12v58.6
	C87.9,82.1,82.5,87.5,75.9,87.5z"/>
<path class="st1" d="M51.2,61.6l11.9-11.9c1.7-1.7,1.7-4.5,0-6.3L50.5,30.8c-1.7-1.7-4.5-1.7-6.3,0c-0.9,0.9-1.3,2-1.3,3.1
	c0,1.1,0.4,2.3,1.3,3.1l4.7,4.7H33.2c-2.4,0-4.4,2-4.4,4.4c0,2.5,2,4.4,4.4,4.4h16.4L45,55.3c-1.7,1.7-1.7,4.5,0,6.3
	C46.7,63.4,49.5,63.4,51.2,61.6z"/>
</svg>
