<?xml version="1.0" encoding="utf-8"?>
<!-- Generator: Adobe Illustrator 19.2.1, SVG Export Plug-In . SVG Version: 6.00 Build 0)  -->
<svg version="1.1" id="Layer_1" xmlns="http://www.w3.org/2000/svg" xmlns:xlink="http://www.w3.org/1999/xlink" x="0px" y="0px"
	 viewBox="0 0 93 93" style="enable-background:new 0 0 93 93;" xml:space="preserve">
<style type="text/css">
	.st0{fill:none;stroke:#ffffff;stroke-width:2;stroke-miterlimit:10;stroke-dasharray:4.9729,4.9729;}
	.st1{fill:#ffffff;stroke:#ffffff;stroke-miterlimit:10;}
</style>
<g>
	<g>
		<circle class="st0" cx="46.1" cy="46.1" r="44.3"/>
	</g>
	<g>
		<path class="st1" d="M40.5,37.3l-10.9-2c0.9-3.5,2.7-6.2,5.2-8c2.6-1.9,6.2-2.8,11-2.8c5.4,0,9.4,1,11.8,3c2.4,2,3.6,4.6,3.6,7.6
			c0,1.8-0.5,3.4-1.5,4.9c-1,1.5-2.5,2.7-4.5,3.8c1.6,0.4,2.8,0.9,3.7,1.4c1.4,0.9,2.5,2,3.2,3.4c0.8,1.4,1.1,3.1,1.1,5
			c0,2.4-0.6,4.7-1.9,7c-1.3,2.2-3.1,3.9-5.5,5.1c-2.4,1.2-5.5,1.8-9.4,1.8c-3.8,0-6.8-0.4-9-1.3c-2.2-0.9-4-2.2-5.4-3.9
			c-1.4-1.7-2.5-3.9-3.3-6.5l11.6-1.5c0.5,2.3,1.2,3.9,2.1,4.8c1,0.9,2.2,1.3,3.6,1.3c1.6,0,2.8-0.6,3.9-1.7c1-1.1,1.5-2.7,1.5-4.5
			c0-1.9-0.5-3.4-1.5-4.5c-1-1.1-2.3-1.6-4-1.6c-0.9,0-2.2,0.2-3.7,0.7l0.6-8.3c0.6,0.1,1.1,0.1,1.5,0.1c1.5,0,2.8-0.5,3.8-1.4
			c1-1,1.5-2.1,1.5-3.4c0-1.3-0.4-2.3-1.1-3c-0.8-0.8-1.8-1.1-3.1-1.1c-1.4,0-2.5,0.4-3.3,1.2C41.4,33.8,40.8,35.2,40.5,37.3z"/>
	</g>
</g>
</svg>
