<?xml version="1.0" encoding="utf-8"?>
<!-- Generator: Adobe Illustrator 19.2.1, SVG Export Plug-In . SVG Version: 6.00 Build 0)  -->
<svg version="1.1" id="Layer_1" xmlns="http://www.w3.org/2000/svg" xmlns:xlink="http://www.w3.org/1999/xlink" x="0px" y="0px"
	 viewBox="0 0 93 93" style="enable-background:new 0 0 93 93;" xml:space="preserve">
<style type="text/css">
	.st0{fill:#9A9A99;stroke:#9A9A99;stroke-miterlimit:10;}
</style>
<g>
	<path class="st0" d="M39.8,38.2h15.1c0.7-1.2,1.2-2.5,1.2-4c0-1.2-0.2-2.2-0.7-3.5H39.8V38.2z"/>
	<path class="st0" d="M91,22.6H74.2c-1-1.7-2-3.2-3.5-4.7c-3.7-3.7-9.6-5.4-17.1-5.4H18.6v10.1H2v8.2h16.6v7.4H2v8.2h16.6V81h21.3
		V55.5h11.6c8.4,0,14.8-2,19-5.9c1-1,2-2.2,2.7-3.5H91V38H76.2c0.2-1.5,0.2-3,0.2-4.7c0-1,0-2-0.2-2.7h14.6v-7.9H91z M56.1,34
		c0,1.5-0.5,3-1.2,4H39.8v-7.4h15.6C55.9,31.8,56.1,32.8,56.1,34z"/>
</g>
</svg>
