<?xml version="1.0" encoding="utf-8"?>
<!-- Generator: Adobe Illustrator 20.0.0, SVG Export Plug-In . SVG Version: 6.00 Build 0)  -->
<svg version="1.1" id="Layer_1" xmlns="http://www.w3.org/2000/svg" xmlns:xlink="http://www.w3.org/1999/xlink" x="0px" y="0px"
	 viewBox="0 0 250 250" style="enable-background:new 0 0 250 250;" xml:space="preserve">
<style type="text/css">
	.st0{fill:#154d7b;}
</style>
<path class="st0" d="M125.3,2.4C57.6,2.4,2.6,57.3,2.6,125s54.9,122.7,122.7,122.7S247.9,192.8,247.9,125S193,2.4,125.3,2.4z
	 M129.6,46.1c2.1,4.1,0.7,12.4-11.1,16.6L103.3,33C103.3,33,124,26.8,129.6,46.1z M95.7,226.5c-8.3,0.7-18.7,2.8-21.4-29
	c-4.1-6.9-11.7-9-19.3-10.4c-7.6-1.4-9-17.3,0-29.7c-7.6-8.3-40.1-36.6-33.2-64.9C28.7,70.3,39.7,42,78.4,24
	c15.2,14.5,25.6,22.8,4.8,33.9c-8.3,4.8-10.4,16.6,0,18c0,0,2.1-10.4,8.3-7.6c6.2,2.8,20.7,17.3,9.7,18
	c-11.1,0.7-15.9,5.5-20.7,11.7c-4.8,6.2-13.8,22.1-20,22.8c-6.2,0.7-5.5-9.7-11.1-9.7c-5.5,0-11.1,0-8.3,17.3
	c3.5,9.7,33.2,31.8,99.5,52.5C141.3,184.3,133,223,95.7,226.5z M214.6,149.8c0,0-1.4,1.4-5.5,3.5c-4.1,2.1-40.8,13.1-39.4-18.7
	c2.8-7.6,22.1-47.7-15.2-63.6c4.1-7.6,17.3-9.7,17.3-9.7l-23.5-38c0,0,73.9,9,81.5,85c0,11.7-0.7,42.8-7.6,60.1
	C215.9,155.3,214.6,149.8,214.6,149.8z"/>
</svg>
