<?xml version="1.0" encoding="utf-8"?>
<!-- Generator: Adobe Illustrator 20.1.0, SVG Export Plug-In . SVG Version: 6.00 Build 0)  -->
<svg version="1.1" id="Layer_1" xmlns="http://www.w3.org/2000/svg" xmlns:xlink="http://www.w3.org/1999/xlink" x="0px" y="0px"
	 viewBox="0 0 250 250" style="enable-background:new 0 0 250 250;" xml:space="preserve">
<style type="text/css">
	.st0{fill:none;stroke:#FFFFFF;stroke-width:9;stroke-linecap:round;stroke-miterlimit:10;}
	.st1{fill:none;stroke:#FFFFFF;stroke-width:5;stroke-linecap:round;stroke-miterlimit:10;}
</style>
<path class="st0" d="M134,115.9h100.8C231.1,61.9,188,18.8,134,15.1V115.9z"/>
<path class="st0" d="M206.6,197c16.3-17.6,26.8-40.7,28.5-66.1h-94.6L206.6,197z"/>
<circle class="st1" cx="143.3" cy="27.5" r="3.7"/>
<circle class="st1" cx="143.3" cy="50" r="3.7"/>
<circle class="st1" cx="154.5" cy="38.8" r="3.7"/>
<circle class="st1" cx="177" cy="38.8" r="3.7"/>
<circle class="st1" cx="165.8" cy="27.5" r="3.7"/>
<circle class="st1" cx="165.8" cy="50" r="3.7"/>
<circle class="st1" cx="188.2" cy="50" r="3.7"/>
<circle class="st1" cx="199.5" cy="61.2" r="3.7"/>
<circle class="st1" cx="154.5" cy="61.2" r="3.7"/>
<circle class="st1" cx="177" cy="61.2" r="3.7"/>
<circle class="st1" cx="221.9" cy="83.7" r="3.7"/>
<circle class="st1" cx="199.5" cy="83.7" r="3.7"/>
<circle class="st1" cx="210.7" cy="72.5" r="3.7"/>
<circle class="st1" cx="210.7" cy="94.9" r="3.7"/>
<circle class="st1" cx="143.3" cy="72.5" r="3.7"/>
<circle class="st1" cx="143.3" cy="94.9" r="3.7"/>
<circle class="st1" cx="154.5" cy="83.7" r="3.7"/>
<circle class="st1" cx="177" cy="83.7" r="3.7"/>
<circle class="st1" cx="165.8" cy="72.5" r="3.7"/>
<circle class="st1" cx="188.2" cy="72.5" r="3.7"/>
<circle class="st1" cx="165.8" cy="94.9" r="3.7"/>
<circle class="st1" cx="188.2" cy="94.9" r="3.7"/>
<circle class="st1" cx="221.9" cy="106.2" r="3.7"/>
<circle class="st1" cx="199.5" cy="106.2" r="3.7"/>
<circle class="st1" cx="154.5" cy="106.2" r="3.7"/>
<circle class="st1" cx="177" cy="106.2" r="3.7"/>
<path class="st0" d="M119,120.3V15.1C62.5,18.9,17.9,65.9,17.9,123.4c0,27.3,10.1,52.2,26.7,71.3L119,120.3z"/>
<path class="st0" d="M124.3,136.2l-69.1,69.1c19.1,16.6,44,26.7,71.3,26.7c26.2,0,50.2-9.3,68.9-24.7L124.3,136.2z"/>
<g>
	<line class="st1" x1="176.1" y1="188" x2="132.2" y2="231.8"/>
</g>
<g>
	<line class="st1" x1="157.9" y1="227.4" x2="186.7" y2="198.6"/>
</g>
<g>
	<line class="st1" x1="111.9" y1="231" x2="165.5" y2="177.4"/>
</g>
<g>
	<line class="st1" x1="154.9" y1="166.8" x2="94.5" y2="227.2"/>
</g>
<g>
	<line class="st1" x1="79.3" y1="221.2" x2="144.3" y2="156.2"/>
</g>
<g>
	<line class="st1" x1="133.7" y1="145.6" x2="65.9" y2="213.5"/>
</g>
</svg>
