<?xml version="1.0" encoding="utf-8"?>
<!-- Generator: Adobe Illustrator 20.1.0, SVG Export Plug-In . SVG Version: 6.00 Build 0)  -->
<svg version="1.1" id="Layer_1" xmlns="http://www.w3.org/2000/svg" xmlns:xlink="http://www.w3.org/1999/xlink" x="0px" y="0px"
	 viewBox="0 0 250 250" style="enable-background:new 0 0 250 250;" xml:space="preserve">
<style type="text/css">
	.st0{fill:none;stroke:#154d7b;stroke-width:9;stroke-linecap:round;stroke-miterlimit:10;}
</style>
<g>
	<path class="st0" d="M188.1,228H31.5c-3.6,0-6.2-3.4-5.3-6.9l35.6-97.5c0.6-2.4,2.8-4,5.3-4h156.7c3.6,0,5.3,3.4,5.3,6.9L193.4,224
		C192.8,226.3,190.6,228,188.1,228z"/>
	<line class="st0" x1="78.5" y1="77.5" x2="113.5" y2="77.5"/>
	<line class="st0" x1="78.5" y1="53" x2="113.5" y2="53"/>
	<line class="st0" x1="78.5" y1="102" x2="162.5" y2="102"/>
	<path class="st0" d="M186,77.5h-51.5V26c0-0.4,0.5-0.6,0.7-0.3l51.1,51.1C186.5,77,186.4,77.5,186,77.5z"/>
	<path class="st0" d="M61.8,123.5c0.6-2.4,2.8-4,5.3-4H187v-42L134.5,25H54v119.9L61.8,123.5z"/>
	<g>
		<path class="st0" d="M201.9,88H187v31.5h21V94.1C208,90.7,205.3,88,201.9,88z"/>
		<path class="st0" d="M54,63.5H32.1c-3.3,0-6.1,2.7-6.1,6.1v149.5c0.2,0,0.5,0,0.7,0L54,144.7V63.5z"/>
	</g>
</g>
<line class="st0" x1="96" y1="174.8" x2="156" y2="174.8"/>
<line class="st0" x1="156" y1="174.8" x2="138.9" y2="157.7"/>
<line class="st0" x1="156" y1="174.8" x2="138.9" y2="192"/>
</svg>
