<?xml version="1.0" encoding="utf-8"?>
<svg id="Layer_1" style="enable-background:new 0 0 250 250;" x="0px" y="0px" viewBox="0 0 250 250" xmlns="http://www.w3.org/2000/svg" xmlns:bx="https://boxy-svg.com">
  <defs>
    <style type="text/css">
	.st0{fill-rule:evenodd;clip-rule:evenodd;fill:#154d7b;}
</style>
  </defs>
  <path class="st0" d="M 211.123 6.806 L 28.53 6.806 C 23.032 6.806 18.552 11.665 18.552 17.624 L 18.552 215.551 C 18.552 221.51 23.032 226.369 28.53 226.369 L 211.123 226.369 C 216.621 226.369 221.101 221.51 221.101 215.551 L 221.101 17.624 C 221.101 11.665 216.621 6.806 211.123 6.806 Z M 196.159 189.235 L 195.156 189.235 C 191.672 198.879 182.942 205.818 172.8 205.818 C 162.651 205.818 153.921 198.968 150.437 189.235 L 43.174 189.235 C 38.345 189.235 34.355 184.911 34.355 179.68 C 34.355 174.465 38.345 170.118 43.174 170.118 L 150.273 170.118 C 153.758 160.4 162.488 153.543 172.718 153.543 C 182.942 153.543 191.59 160.4 195.156 170.118 L 196.159 170.118 C 200.981 170.118 204.971 174.465 204.971 179.68 C 204.971 185 200.981 189.235 196.159 189.235 Z M 196.159 126.142 L 142.108 126.142 C 138.624 135.793 129.886 142.725 119.745 142.725 C 109.603 142.725 100.784 135.882 97.299 126.142 L 43.256 126.142 C 38.426 126.142 34.437 121.818 34.437 116.587 C 34.437 111.357 38.426 107.025 43.256 107.025 L 97.299 107.025 C 100.784 97.292 109.521 90.45 119.745 90.45 C 129.968 90.45 138.624 97.292 142.205 107.025 L 196.256 107.025 C 201.063 107.025 205.053 111.357 205.053 116.587 C 204.971 121.907 200.981 126.142 196.159 126.142 Z M 196.159 63.049 L 90.642 63.049 C 87.321 73.228 78.421 80.538 67.937 80.538 C 57.469 80.538 48.486 73.228 45.247 63.049 L 43.256 63.049 C 38.426 63.049 34.437 58.725 34.437 53.494 C 34.437 48.264 38.426 43.94 43.256 43.94 L 45.901 43.94 C 49.653 34.749 58.137 28.263 67.937 28.263 C 77.752 28.263 86.326 34.749 89.974 44.029 L 196.077 44.029 C 200.899 44.029 204.889 48.353 204.889 53.583 C 204.971 58.814 200.981 63.049 196.159 63.049 Z" bx:origin="0.5 0.5"/>
</svg>