<?xml version="1.0" encoding="utf-8"?>
<!-- Generator: Adobe Illustrator 19.2.1, SVG Export Plug-In . SVG Version: 6.00 Build 0)  -->
<svg version="1.1" id="Layer_1" xmlns="http://www.w3.org/2000/svg" xmlns:xlink="http://www.w3.org/1999/xlink" x="0px" y="0px"
	 viewBox="0 0 120 120" style="enable-background:new 0 0 120 120;" xml:space="preserve" >
<style type="text/css">
	.st0{fill:#154d7b;}
</style>
<path class="st0" d="M112.7,31.7H7.5c-3.3,0-6-2.7-6-6v-1.5c0-3.3,2.7-6,6-6h105.2c3.3,0,6,2.7,6,6v1.5
	C118.7,29,116,31.7,112.7,31.7z"/>
<path class="st0" d="M112.7,65.4H7.5c-3.3,0-6-2.7-6-6v-1.5c0-3.3,2.7-6,6-6h105.2c3.3,0,6,2.7,6,6v1.5
	C118.7,62.7,116,65.4,112.7,65.4z"/>
<path class="st0" d="M112.7,99H7.5c-3.3,0-6-2.7-6-6v-1.5c0-3.3,2.7-6,6-6h105.2c3.3,0,6,2.7,6,6V93C118.7,96.3,116,99,112.7,99z"/>
</svg>
