<?xml version="1.0" encoding="utf-8"?>
<!-- Generator: Adobe Illustrator 20.0.0, SVG Export Plug-In . SVG Version: 6.00 Build 0)  -->
<svg version="1.1" id="Layer_1" xmlns="http://www.w3.org/2000/svg" xmlns:xlink="http://www.w3.org/1999/xlink" x="0px" y="0px"
	 viewBox="0 0 250 250" style="enable-background:new 0 0 250 250;" xml:space="preserve">
<style type="text/css">
	.st0{fill:none;}
	.st2{fill:#3fa04f;}
	.st1{fill:#286137;}
</style>
<g>
	<path class="st0" d="M125.3,24.7c-55.2,0-99.9,44.7-99.9,99.9c0,55.2,44.7,99.9,99.9,99.9c55.2,0,99.9-44.7,99.9-99.9
		C225.3,69.4,180.5,24.7,125.3,24.7z M136.8,194.1c-3.6,3.3-8.6,4.9-14.9,4.9c-6.5,0-11.6-1.6-15.3-4.9c-3.7-3.3-5.5-7.9-5.5-14
		c0-6,1.8-10.7,5.3-14c3.5-3.3,8.7-4.9,15.5-4.9c6.6,0,11.6,1.7,15.1,5c3.5,3.3,5.3,8,5.3,14C142.3,186.1,140.4,190.8,136.8,194.1z
		 M168.9,106.9c-3.7,5.8-9.7,11.3-17.8,16.5c-6.9,4.5-11.2,7.7-13,9.8c-1.7,2.1-2.6,4.5-2.6,7.3v5h-30.3v-8.5
		c0-6.4,1.3-11.9,3.9-16.3c2.6-4.4,7.3-8.8,14-13c5.3-3.4,9.2-6.4,11.5-9.1c2.3-2.7,3.5-5.8,3.5-9.3c0-2.8-1.2-4.9-3.7-6.6
		c-2.5-1.6-5.8-2.4-9.8-2.4c-9.9,0-21.5,3.5-34.8,10.6L76.2,64.2c16.4-9.3,33.5-14,51.3-14c14.7,0,26.2,3.2,34.5,9.7
		c8.4,6.4,12.5,15.2,12.5,26.3C174.5,94.2,172.7,101.1,168.9,106.9z"/>
	<path class="st1" d="M125.3,1.9C57.5,1.9,2.6,56.8,2.6,124.6s55,122.8,122.8,122.8c67.8,0,122.8-55,122.8-122.8
		S193.1,1.9,125.3,1.9z M125.3,224.5c-55.2,0-99.9-44.7-99.9-99.9c0-55.2,44.7-99.9,99.9-99.9c55.2,0,99.9,44.7,99.9,99.9
		C225.3,179.8,180.5,224.5,125.3,224.5z"/>
	<path class="st2" d="M121.8,161.2c-6.8,0-12,1.6-15.5,4.9c-3.5,3.3-5.3,8-5.3,14c0,6.1,1.8,10.7,5.5,14c3.7,3.3,8.8,4.9,15.3,4.9
		c6.3,0,11.3-1.6,14.9-4.9c3.7-3.3,5.5-7.9,5.5-13.9c0-6-1.8-10.6-5.3-14C133.5,162.9,128.4,161.2,121.8,161.2z"/>
	<path class="st2" d="M162,59.9c-8.4-6.4-19.9-9.7-34.5-9.7c-17.8,0-34.9,4.7-51.3,14l13.7,26.8c13.3-7,24.9-10.6,34.8-10.6
		c4,0,7.3,0.8,9.8,2.4c2.5,1.6,3.7,3.8,3.7,6.6c0,3.5-1.2,6.6-3.5,9.3c-2.3,2.7-6.2,5.7-11.5,9.1c-6.7,4.2-11.4,8.5-14,13
		c-2.6,4.4-3.9,9.9-3.9,16.3v8.5h30.3v-5c0-2.8,0.9-5.3,2.6-7.3c1.7-2.1,6.1-5.3,13-9.8c8.2-5.2,14.1-10.7,17.8-16.5
		c3.7-5.8,5.6-12.7,5.6-20.7C174.5,75.1,170.3,66.3,162,59.9z"/>
</g>
</svg>
