<?xml version="1.0" encoding="utf-8"?>
<!-- Generator: Adobe Illustrator 20.0.0, SVG Export Plug-In . SVG Version: 6.00 Build 0)  -->
<svg version="1.1" id="Layer_1" xmlns="http://www.w3.org/2000/svg" xmlns:xlink="http://www.w3.org/1999/xlink" x="0px" y="0px"
	 viewBox="0 0 250 250" style="enable-background:new 0 0 250 250;" xml:space="preserve">
<style type="text/css">
	.st0{fill-rule:evenodd;clip-rule:evenodd;fill:#FFFFFF;}
</style>
<path class="st0" d="M223.2,41.5l-0.4,73.3c0,0-1.2,39.7-43.8,39.7h-59.8L92.5,182l43.8,0.4l60.2,62.3l2.1-63.9
	c0,0,47.1,3.3,47.1-38.5c0-41.8,0-61.9,0-61.9S247.8,55.5,223.2,41.5z M171.1,144.4c21.7,0,39.3-17.6,39.3-39.3V41.1
	c0-21.7-17.6-39.3-39.3-39.3H41.3C19.6,1.8,2,19.4,2,41.1V105c0,21.7,17.6,39.3,39.3,39.3h3.3l0.4,58.2l65-58.2H171.1z"/>
</svg>
