<?xml version="1.0" encoding="utf-8"?>
<!-- Generator: Adobe Illustrator 20.0.0, SVG Export Plug-In . SVG Version: 6.00 Build 0)  -->
<svg version="1.1" id="Layer_1" xmlns="http://www.w3.org/2000/svg" xmlns:xlink="http://www.w3.org/1999/xlink" x="0px" y="0px"
	 viewBox="0 0 93 93" style="enable-background:new 0 0 93 93;" xml:space="preserve">
<style type="text/css">
	.st0{fill:url(#SVGID_1_);stroke:#CFD1DB;stroke-miterlimit:10;}
	.st1{fill:none;stroke:#154d7b;stroke-miterlimit:10;}
	.st2{fill:#154d7b;}
</style>
<linearGradient id="SVGID_1_" gradientUnits="userSpaceOnUse" x1="46.5847" y1="74.2215" x2="46.5847" y2="-16.751" gradientTransform="matrix(1 0 0 -1 0 94)">
	<stop  offset="0" style="stop-color:#FFFFFF"/>
	<stop  offset="0.4675" style="stop-color:#F6F6F7"/>
	<stop  offset="1" style="stop-color:#E6E7E8"/>
</linearGradient>
<path class="st0" d="M75.8,87.6H17.3c-6.6,0-12-5.4-12-12V17c0-6.6,5.4-12,12-12h58.6c6.6,0,12,5.4,12,12v58.6
	C87.8,82.2,82.4,87.6,75.8,87.6z"/>
<g>
	<path class="st1" d="M63.9,36.9c0,8.4-17.3,31.6-17.3,31.6S29.3,45.4,29.3,36.9S37,21.7,46.6,21.7S63.9,28.5,63.9,36.9z"/>
	<g>
		<path class="st2" d="M41.2,43c0.7,0.4,2.4,1.1,4.1,1.1c2.1,0,3.2-1,3.2-2.3c0-1.7-1.7-2.5-3.5-2.5h-1.7v-2.9h1.6
			c1.4,0,3.1-0.5,3.1-2c0-1-0.9-1.8-2.6-1.8c-1.4,0-2.9,0.6-3.7,1l-0.8-3c1-0.7,3.1-1.3,5.4-1.3c3.7,0,5.8,2,5.8,4.4
			c0,1.9-1,3.3-3.2,4.1v0.1c2.1,0.4,3.8,2,3.8,4.2c0,3.1-2.7,5.4-7.2,5.4c-2.3,0-4.2-0.6-5.2-1.2L41.2,43z"/>
	</g>
</g>
</svg>
