<?xml version="1.0" encoding="utf-8"?>
<!-- Generator: Adobe Illustrator 20.0.0, SVG Export Plug-In . SVG Version: 6.00 Build 0)  -->
<svg version="1.1" id="Layer_1" xmlns="http://www.w3.org/2000/svg" xmlns:xlink="http://www.w3.org/1999/xlink" x="0px" y="0px"
	 viewBox="0 0 93 93" style="enable-background:new 0 0 93 93;" xml:space="preserve">
<style type="text/css">
	.st0{fill:none;stroke:#9A9A99;stroke-miterlimit:10;}
	.st1{fill:#9A9A99;}
</style>
<g>
	<path class="st0" d="M79.1,31.4c0,15.5-31.8,58.1-31.8,58.1S15.5,46.9,15.5,31.4s14.2-28,31.8-28S79.1,15.9,79.1,31.4z"/>
	<g>
		<path class="st1" d="M37.5,42.6c1.3,0.7,4.4,2,7.5,2c3.9,0,5.9-1.9,5.9-4.3c0-3.2-3.2-4.6-6.5-4.6h-3.1v-5.4h2.9
			c2.5,0,5.7-1,5.7-3.7c0-1.9-1.6-3.4-4.8-3.4c-2.6,0-5.4,1.1-6.7,1.9L37,19.7c1.9-1.2,5.8-2.4,9.9-2.4c6.9,0,10.7,3.6,10.7,8
			c0,3.4-1.9,6.1-5.9,7.5v0.1c3.9,0.7,7,3.6,7,7.8c0,5.7-5,9.8-13.2,9.8c-4.2,0-7.7-1.1-9.6-2.3L37.5,42.6z"/>
	</g>
</g>
</svg>
