<?xml version="1.0" encoding="utf-8"?>
<!-- Generator: Adobe Illustrator 18.1.1, SVG Export Plug-In . SVG Version: 6.00 Build 0)  -->
<svg version="1.1" id="Flag" xmlns="http://www.w3.org/2000/svg" xmlns:xlink="http://www.w3.org/1999/xlink" x="0px" y="0px"
	 viewBox="0 0 512 512" style="enable-background:new 0 0 512 512;" xml:space="preserve">
<style type="text/css">
	.st0{clip-path:url(#SVGID_2_);}
	.st1{fill:#656565;}
	.st2{fill:#858585;}
	.st3{fill:#F8F8F8;}
	.st4{fill:#C5C5C5;}
</style>
<g>
	<defs>
		<path id="SVGID_1_" d="M480,512H32c-17.6,0-32-14.4-32-32V32C0,14.4,14.4,0,32,0h448c17.6,0,32,14.4,32,32v448
			C512,497.6,497.6,512,480,512z"/>
	</defs>
	<clipPath id="SVGID_2_">
		<use xlink:href="#SVGID_1_"  style="overflow:visible;"/>
	</clipPath>
	<g class="st0">
		<g>
			<rect x="0" y="0" class="st1" width="512" height="256"/>
			<rect x="0" y="256" class="st2" width="512" height="256"/>
			<polygon class="st3" points="0,0 341.3,256 0,512 			"/>
			<g>
				<path class="st4" d="M214.1,260.4l3.7-3.7c0.6-0.6,0.6-1.7,0-2.4l-3.7-3.7c-0.5-0.5-1.2-0.8-2-0.7l-42.1,2.8
					c-0.1-1-0.2-1.9-0.3-2.9l38.6-5.1c0.4-0.1,0.5-0.5,0.3-0.8l-3-3c-0.6-0.6-1.5-0.9-2.3-0.7l-34,6.8c-1.1-5.8-3.4-11.1-6.6-15.9
					l28.8-19.2c0.7-0.5,1.1-1.3,1.1-2.1v-4.3c0-0.4-0.4-0.6-0.8-0.4L161,228.7c-0.6-0.8-1.2-1.5-1.8-2.2l31.7-27.8
					c0.6-0.5,0.9-1.2,0.9-1.9v-5.3c0-0.9-0.7-1.7-1.7-1.7h-5.3c-0.7,0-1.4,0.3-1.9,0.9l-27.8,31.7c-0.7-0.6-1.5-1.2-2.2-1.8
					l23.7-30.9c0.2-0.3,0-0.8-0.4-0.8h-4.3c-0.9,0-1.7,0.4-2.1,1.1l-19.2,28.8c-4.7-3.2-10.1-5.4-15.9-6.6l6.8-34
					c0.2-0.8-0.1-1.7-0.7-2.3l-3-3c-0.3-0.3-0.7-0.1-0.8,0.3l-5.1,38.6c-0.9-0.1-1.9-0.2-2.9-0.3l2.8-42.1c0-0.7-0.2-1.5-0.7-2
					l-3.7-3.7c-0.6-0.6-1.7-0.6-2.4,0l-3.7,3.7c-0.5,0.5-0.8,1.2-0.7,2l2.8,42.1c-1,0.1-1.9,0.2-2.9,0.3l-5.1-38.6
					c-0.1-0.4-0.5-0.5-0.8-0.3l-3,3c-0.6,0.6-0.9,1.5-0.7,2.3l6.8,34c-5.8,1.1-11.1,3.4-15.9,6.6l-19.2-28.8
					c-0.5-0.7-1.3-1.1-2.1-1.1H76c-0.4,0-0.6,0.4-0.4,0.8l23.7,30.9c-0.8,0.6-1.5,1.2-2.2,1.8l-28.6-32.6H62c-0.9,0-1.7,0.7-1.7,1.7
					v6.4L93,226.4c-0.6,0.7-1.2,1.5-1.8,2.2L60.3,205c-0.3-0.2-0.8,0-0.8,0.4v4.3c0,0.9,0.4,1.7,1.1,2.1L89.5,231
					c-3.2,4.7-5.4,10.1-6.6,15.9l-34-6.8c-0.8-0.2-1.7,0.1-2.3,0.7l-3,3c-0.3,0.3-0.1,0.7,0.3,0.8l38.6,5.1
					c-0.1,0.9-0.2,1.9-0.3,2.9l-43.3-2.8l-4.5,4.5c-0.6,0.6-0.6,1.7,0,2.4l4.5,4.5l43.3-2.8c0.1,1,0.2,1.9,0.3,2.9l-38.6,5.1
					c-0.4,0.1-0.5,0.5-0.3,0.8l3,3c0.6,0.6,1.5,0.9,2.3,0.7l34-6.8c1.1,5.8,3.4,11.1,6.6,15.9l-28.8,19.2c-0.7,0.5-1.1,1.3-1.1,2.1
					v4.3c0,0.4,0.4,0.6,0.8,0.4l30.9-23.7c0.6,0.8,1.2,1.5,1.8,2.2l-32.6,28.6v6.4c0,0.9,0.7,1.7,1.7,1.7h6.4L97,288.6
					c0.7,0.6,1.5,1.2,2.2,1.8l-23.7,30.9c-0.2,0.3,0,0.8,0.4,0.8h4.3c0.9,0,1.7-0.4,2.1-1.1l19.2-28.8c4.7,3.2,10.1,5.4,15.9,6.6
					l-6.8,34c-0.2,0.8,0.1,1.7,0.7,2.3l3,3c0.3,0.3,0.7,0.1,0.8-0.3l5.1-38.6c0.9,0.1,1.9,0.2,2.9,0.3l-2.8,43.3l4.5,4.5
					c0.6,0.6,1.7,0.6,2.4,0l4.5-4.5l-2.8-43.3c1-0.1,1.9-0.2,2.9-0.3l5.1,38.6c0.1,0.4,0.5,0.5,0.8,0.3l3-3c0.6-0.6,0.9-1.5,0.7-2.3
					l-6.8-34c5.8-1.1,11.1-3.4,15.9-6.6l19.2,28.8c0.5,0.7,1.3,1.1,2.1,1.1h4.3c0.4,0,0.6-0.4,0.4-0.8l-23.7-30.9
					c0.8-0.6,1.5-1.2,2.2-1.8l27.8,31.7c0.5,0.6,1.2,0.9,1.9,0.9h5.3c0.9,0,1.7-0.7,1.7-1.7v-5.3c0-0.7-0.3-1.4-0.9-1.9l-31.7-27.8
					c0.6-0.7,1.2-1.5,1.8-2.2l30.9,23.7c0.3,0.2,0.8,0,0.8-0.4v-4.3c0-0.9-0.4-1.7-1.1-2.1l-28.8-19.2c3.2-4.7,5.4-10.1,6.6-15.9
					l34,6.8c0.8,0.2,1.7-0.1,2.3-0.7l3-3c0.3-0.3,0.1-0.7-0.3-0.8l-38.6-5.1c0.1-0.9,0.2-1.9,0.3-2.9l42.1,2.8
					C212.9,261.2,213.6,260.9,214.1,260.4z"/>
				<path class="st4" d="M279.2,260l12.6-4.1c0.5-0.1,0.5-0.8,0-0.9l-12.6-4.1c-0.2-0.1-0.3-0.3-0.3-0.5l0-13.3
					c0-0.5-0.6-0.7-0.9-0.3l-7.8,10.7c-0.1,0.2-0.3,0.2-0.6,0.2l-12.6-4.1c-0.5-0.1-0.8,0.4-0.6,0.8l7.8,10.7c0.1,0.2,0.1,0.4,0,0.6
					l-7.8,10.7c-0.3,0.4,0.1,0.9,0.6,0.8l12.6-4.1c0.2-0.1,0.4,0,0.6,0.2l7.8,10.7c0.3,0.4,0.9,0.2,0.9-0.3l0-13.3
					C278.8,260.2,279,260,279.2,260z"/>
				<path class="st4" d="M49.3,82.7L55,70c0.2-0.5-0.3-0.9-0.7-0.7l-12.1,6.9c-0.2,0.1-0.4,0.1-0.6-0.1l-10.3-9.3
					c-0.4-0.3-1,0-0.9,0.5L33.3,81c0,0.2-0.1,0.4-0.2,0.6L21,88.5c-0.4,0.3-0.3,0.9,0.2,1L35,91c0.2,0,0.4,0.2,0.5,0.4l2.9,13.6
					c0.1,0.5,0.8,0.6,1,0.1L45,92.4c0.1-0.2,0.3-0.3,0.5-0.3l13.9,1.5c0.5,0.1,0.8-0.6,0.4-0.9l-10.3-9.3
					C49.3,83.2,49.3,82.9,49.3,82.7z"/>
				<path class="st4" d="M49.3,429.3L55,442c0.2,0.5-0.3,0.9-0.7,0.7l-12.1-6.9c-0.2-0.1-0.4-0.1-0.6,0.1l-10.3,9.3
					c-0.4,0.3-1,0-0.9-0.5l2.9-13.6c0-0.2-0.1-0.4-0.2-0.6L21,423.5c-0.4-0.3-0.3-0.9,0.2-1L35,421c0.2,0,0.4-0.2,0.5-0.4l2.9-13.6
					c0.1-0.5,0.8-0.6,1-0.1l5.7,12.7c0.1,0.2,0.3,0.3,0.5,0.3l13.9-1.5c0.5-0.1,0.8,0.6,0.4,0.9l-10.3,9.3
					C49.3,428.8,49.3,429.1,49.3,429.3z"/>
			</g>
		</g>
	</g>
</g>
</svg>
