<?xml version="1.0" encoding="utf-8"?>
<!-- Generator: Adobe Illustrator 20.0.0, SVG Export Plug-In . SVG Version: 6.00 Build 0)  -->
<svg version="1.1" id="Layer_1" xmlns="http://www.w3.org/2000/svg" xmlns:xlink="http://www.w3.org/1999/xlink" x="0px" y="0px"
	 viewBox="0 0 250 250" style="enable-background:new 0 0 250 250;" xml:space="preserve">
<style type="text/css">
	.st0{fill-rule:evenodd;clip-rule:evenodd;fill:#154d7b;}
</style>
<path class="st0" d="M241.9,160.6l5.2-29.7l-29.5-5.2c0.3-11.9-1.7-23.5-5.6-34.2l25.5-14.7l-15.1-26.1l-25.2,14.5
	c-5.6-7.1-12.1-13.6-19.6-18.8l12-25.8L162.4,7.8l-11.8,25.4c-3.4-1-6.9-1.9-10.5-2.6c-5.7-1-11.4-1.4-16.9-1.3L118.3,2L88.6,7.3
	l4.8,27.1c-8.9,3-17.3,7.4-24.8,12.9L49.2,27.8L27.9,49.1l19.5,19.5c-5.3,7.5-9.7,15.8-12.7,24.8L7.3,88.6l-5.2,29.7l27.6,4.9
	c-0.1,12.2,2.3,24.1,6.7,35l-24.8,14.3l15.1,26.1L52,184c5.8,6.8,12.4,13,20,18l-12.5,26.7l27.3,12.8l12.6-27c2.6,0.7,5.3,1.3,8,1.8
	c6.2,1.1,12.3,1.5,18.3,1.4l5.2,29.7l29.7-5.2l-5.3-29.9c8.3-3,16.1-7.1,23.2-12.2l21.6,21.6l21.3-21.3l-21.5-21.5
	c5.1-7,9.3-14.8,12.3-23.2L241.9,160.6z M167.8,131.2c-4.3,24.4-27.5,40.7-51.9,36.4c-24.4-4.3-40.6-27.6-36.3-51.9
	c4.3-24.4,27.5-40.7,51.9-36.4C155.9,83.6,172.1,106.8,167.8,131.2z M124.7,96.2c-15.2,0-27.6,12.3-27.6,27.6
	c0,15.2,12.3,27.6,27.6,27.6c15.2,0,27.6-12.3,27.6-27.6C152.3,108.6,139.9,96.2,124.7,96.2z"/>
</svg>
