<?xml version="1.0" encoding="utf-8"?>
<!-- Generator: Adobe Illustrator 18.1.1, SVG Export Plug-In . SVG Version: 6.00 Build 0)  -->
<svg version="1.1" id="Flag" xmlns="http://www.w3.org/2000/svg" xmlns:xlink="http://www.w3.org/1999/xlink" x="0px" y="0px"
	 viewBox="0 0 512 512" style="enable-background:new 0 0 512 512;" xml:space="preserve">
<style type="text/css">
	.st0{clip-path:url(#SVGID_2_);fill:#F8F7F7;}
	.st1{clip-path:url(#SVGID_2_);fill:#858585;}
	.st2{clip-path:url(#SVGID_2_);fill:#656565;}
	.st3{clip-path:url(#SVGID_2_);fill:#FFFFFF;}
</style>
<g>
	<defs>
		<path id="SVGID_1_" d="M480,512H32c-17.7,0-32-14.3-32-32V32C0,14.3,14.3,0,32,0h448c17.7,0,32,14.3,32,32v448
			C512,497.7,497.7,512,480,512z"/>
	</defs>
	<clipPath id="SVGID_2_">
		<use xlink:href="#SVGID_1_"  style="overflow:visible;"/>
	</clipPath>
	<rect x="0" y="0" class="st0" width="512" height="512"/>
	<rect x="150.8" y="0" class="st1" width="361.2" height="39.4"/>
	<rect x="0" y="39.4" class="st0" width="512" height="39.4"/>
	<rect x="150.8" y="78.8" class="st1" width="361.2" height="39.4"/>
	<rect x="0" y="118.2" class="st0" width="512" height="39.4"/>
	<rect x="150.8" y="157.5" class="st1" width="361.2" height="39.4"/>
	<rect x="0" y="196.9" class="st0" width="512" height="39.4"/>
	<rect x="150.8" y="236.3" class="st1" width="361.2" height="39.4"/>
	<rect x="0" y="275.7" class="st0" width="512" height="39.4"/>
	<rect x="0" y="315.1" class="st1" width="512" height="39.4"/>
	<rect x="0" y="354.5" class="st0" width="512" height="39.4"/>
	<rect x="0" y="393.8" class="st1" width="512" height="39.4"/>
	<rect x="0" y="433.2" class="st0" width="512" height="39.4"/>
	<rect x="0" y="472.6" class="st1" width="512" height="39.4"/>
	<rect x="0" y="0" class="st2" width="277.3" height="275.7"/>
	<polygon class="st3" points="32,29.1 37.6,25.1 37.2,24 30.4,24 29.8,23.6 27.7,17.1 26.6,17.1 24.5,23.6 23.9,24 17.1,24 
		16.7,25.1 22.2,29.1 22.5,29.8 20.3,36.3 21.3,37 26.8,32.9 27.5,32.9 33,37 33.9,36.3 31.8,29.8 	"/>
	<polygon class="st3" points="54.3,56.6 59.9,52.6 59.5,51.5 52.7,51.5 52.1,51.1 50,44.6 48.9,44.6 46.8,51.1 46.2,51.5 39.4,51.5 
		39,52.6 44.5,56.6 44.8,57.3 42.6,63.8 43.6,64.5 49.1,60.4 49.8,60.4 55.3,64.5 56.2,63.8 54.1,57.3 	"/>
	<polygon class="st3" points="98.9,56.6 104.5,52.6 104.1,51.5 97.3,51.5 96.7,51.1 94.6,44.6 93.5,44.6 91.4,51.1 90.8,51.5 
		83.9,51.5 83.6,52.6 89.1,56.6 89.3,57.3 87.2,63.8 88.1,64.5 93.7,60.4 94.4,60.4 99.9,64.5 100.8,63.8 98.7,57.3 	"/>
	<polygon class="st3" points="143.5,56.6 149.1,52.6 148.7,51.5 141.9,51.5 141.3,51.1 139.2,44.6 138.1,44.6 135.9,51.1 
		135.4,51.5 128.5,51.5 128.2,52.6 133.7,56.6 133.9,57.3 131.8,63.8 132.7,64.5 138.3,60.4 139,60.4 144.5,64.5 145.4,63.8 
		143.3,57.3 	"/>
	<polygon class="st3" points="188.1,56.6 193.6,52.6 193.3,51.5 186.5,51.5 185.9,51.1 183.8,44.6 182.6,44.6 180.5,51.1 180,51.5 
		173.1,51.5 172.8,52.6 178.3,56.6 178.5,57.3 176.4,63.8 177.3,64.5 182.9,60.4 183.6,60.4 189.1,64.5 190,63.8 187.9,57.3 	"/>
	<polygon class="st3" points="232.7,56.6 238.2,52.6 237.9,51.5 231,51.5 230.5,51.1 228.4,44.6 227.2,44.6 225.1,51.1 224.6,51.5 
		217.7,51.5 217.4,52.6 222.9,56.6 223.1,57.3 221,63.8 221.9,64.5 227.5,60.4 228.1,60.4 233.7,64.5 234.6,63.8 232.5,57.3 	"/>
	<polygon class="st3" points="76.6,29.1 82.2,25.1 81.8,24 75,24 74.4,23.6 72.3,17.1 71.2,17.1 69.1,23.6 68.5,24 61.6,24 
		61.3,25.1 66.8,29.1 67.1,29.8 64.9,36.3 65.8,37 71.4,32.9 72.1,32.9 77.6,37 78.5,36.3 76.4,29.8 	"/>
	<polygon class="st3" points="121.2,29.1 126.8,25.1 126.4,24 119.6,24 119,23.6 116.9,17.1 115.8,17.1 113.6,23.6 113.1,24 
		106.2,24 105.9,25.1 111.4,29.1 111.6,29.8 109.5,36.3 110.4,37 116,32.9 116.7,32.9 122.2,37 123.1,36.3 121,29.8 	"/>
	<polygon class="st3" points="165.8,29.1 171.4,25.1 171,24 164.2,24 163.6,23.6 161.5,17.1 160.4,17.1 158.2,23.6 157.7,24 
		150.8,24 150.5,25.1 156,29.1 156.2,29.8 154.1,36.3 155,37 160.6,32.9 161.3,32.9 166.8,37 167.7,36.3 165.6,29.8 	"/>
	<polygon class="st3" points="210.4,29.1 215.9,25.1 215.6,24 208.7,24 208.2,23.6 206.1,17.1 204.9,17.1 202.8,23.6 202.3,24 
		195.4,24 195.1,25.1 200.6,29.1 200.8,29.8 198.7,36.3 199.6,37 205.2,32.9 205.9,32.9 211.4,37 212.3,36.3 210.2,29.8 	"/>
	<polygon class="st3" points="255,29.1 260.5,25.1 260.2,24 253.3,24 252.8,23.6 250.7,17.1 249.5,17.1 247.4,23.6 246.9,24 240,24 
		239.7,25.1 245.2,29.1 245.4,29.8 243.3,36.3 244.2,37 249.7,32.9 250.4,32.9 256,37 256.9,36.3 254.8,29.8 	"/>
	<polygon class="st3" points="32,84.8 37.6,80.8 37.2,79.7 30.4,79.7 29.8,79.3 27.7,72.8 26.6,72.8 24.5,79.3 23.9,79.7 17.1,79.7 
		16.7,80.8 22.2,84.8 22.5,85.5 20.3,92 21.3,92.7 26.8,88.6 27.5,88.6 33,92.7 33.9,92 31.8,85.5 	"/>
	<polygon class="st3" points="54.3,112.3 59.9,108.3 59.5,107.2 52.7,107.2 52.1,106.8 50,100.3 48.9,100.3 46.8,106.8 46.2,107.2 
		39.4,107.2 39,108.3 44.5,112.3 44.8,113 42.6,119.5 43.6,120.2 49.1,116.1 49.8,116.1 55.3,120.2 56.2,119.5 54.1,113 	"/>
	<polygon class="st3" points="98.9,112.3 104.5,108.3 104.1,107.2 97.3,107.2 96.7,106.8 94.6,100.3 93.5,100.3 91.4,106.8 
		90.8,107.2 83.9,107.2 83.6,108.3 89.1,112.3 89.3,113 87.2,119.5 88.1,120.2 93.7,116.1 94.4,116.1 99.9,120.2 100.8,119.5 
		98.7,113 	"/>
	<polygon class="st3" points="143.5,112.3 149.1,108.3 148.7,107.2 141.9,107.2 141.3,106.8 139.2,100.3 138.1,100.3 135.9,106.8 
		135.4,107.2 128.5,107.2 128.2,108.3 133.7,112.3 133.9,113 131.8,119.5 132.7,120.2 138.3,116.1 139,116.1 144.5,120.2 
		145.4,119.5 143.3,113 	"/>
	<polygon class="st3" points="188.1,112.3 193.6,108.3 193.3,107.2 186.5,107.2 185.9,106.8 183.8,100.3 182.6,100.3 180.5,106.8 
		180,107.2 173.1,107.2 172.8,108.3 178.3,112.3 178.5,113 176.4,119.5 177.3,120.2 182.9,116.1 183.6,116.1 189.1,120.2 190,119.5 
		187.9,113 	"/>
	<polygon class="st3" points="232.7,112.3 238.2,108.3 237.9,107.2 231,107.2 230.5,106.8 228.4,100.3 227.2,100.3 225.1,106.8 
		224.6,107.2 217.7,107.2 217.4,108.3 222.9,112.3 223.1,113 221,119.5 221.9,120.2 227.5,116.1 228.1,116.1 233.7,120.2 
		234.6,119.5 232.5,113 	"/>
	<polygon class="st3" points="76.6,84.8 82.2,80.8 81.8,79.7 75,79.7 74.4,79.3 72.3,72.8 71.2,72.8 69.1,79.3 68.5,79.7 61.6,79.7 
		61.3,80.8 66.8,84.8 67.1,85.5 64.9,92 65.8,92.7 71.4,88.6 72.1,88.6 77.6,92.7 78.5,92 76.4,85.5 	"/>
	<polygon class="st3" points="121.2,84.8 126.8,80.8 126.4,79.7 119.6,79.7 119,79.3 116.9,72.8 115.8,72.8 113.6,79.3 113.1,79.7 
		106.2,79.7 105.9,80.8 111.4,84.8 111.6,85.5 109.5,92 110.4,92.7 116,88.6 116.7,88.6 122.2,92.7 123.1,92 121,85.5 	"/>
	<polygon class="st3" points="165.8,84.8 171.4,80.8 171,79.7 164.2,79.7 163.6,79.3 161.5,72.8 160.4,72.8 158.2,79.3 157.7,79.7 
		150.8,79.7 150.5,80.8 156,84.8 156.2,85.5 154.1,92 155,92.7 160.6,88.6 161.3,88.6 166.8,92.7 167.7,92 165.6,85.5 	"/>
	<polygon class="st3" points="210.4,84.8 215.9,80.8 215.6,79.7 208.7,79.7 208.2,79.3 206.1,72.8 204.9,72.8 202.8,79.3 
		202.3,79.7 195.4,79.7 195.1,80.8 200.6,84.8 200.8,85.5 198.7,92 199.6,92.7 205.2,88.6 205.9,88.6 211.4,92.7 212.3,92 
		210.2,85.5 	"/>
	<polygon class="st3" points="255,84.8 260.5,80.8 260.2,79.7 253.3,79.7 252.8,79.3 250.7,72.8 249.5,72.8 247.4,79.3 246.9,79.7 
		240,79.7 239.7,80.8 245.2,84.8 245.4,85.5 243.3,92 244.2,92.7 249.7,88.6 250.4,88.6 256,92.7 256.9,92 254.8,85.5 	"/>
	<polygon class="st3" points="32,140.3 37.6,136.3 37.2,135.2 30.4,135.2 29.8,134.8 27.7,128.3 26.6,128.3 24.5,134.8 23.9,135.2 
		17.1,135.2 16.7,136.3 22.2,140.3 22.5,141 20.3,147.5 21.3,148.1 26.8,144.1 27.5,144.1 33,148.1 33.9,147.5 31.8,141 	"/>
	<polygon class="st3" points="54.3,167.8 59.9,163.8 59.5,162.7 52.7,162.7 52.1,162.3 50,155.8 48.9,155.8 46.8,162.3 46.2,162.7 
		39.4,162.7 39,163.8 44.5,167.8 44.8,168.5 42.6,175 43.6,175.6 49.1,171.6 49.8,171.6 55.3,175.6 56.2,175 54.1,168.5 	"/>
	<polygon class="st3" points="98.9,167.8 104.5,163.8 104.1,162.7 97.3,162.7 96.7,162.3 94.6,155.8 93.5,155.8 91.4,162.3 
		90.8,162.7 83.9,162.7 83.6,163.8 89.1,167.8 89.3,168.5 87.2,175 88.1,175.6 93.7,171.6 94.4,171.6 99.9,175.6 100.8,175 
		98.7,168.5 	"/>
	<polygon class="st3" points="143.5,167.8 149.1,163.8 148.7,162.7 141.9,162.7 141.3,162.3 139.2,155.8 138.1,155.8 135.9,162.3 
		135.4,162.7 128.5,162.7 128.2,163.8 133.7,167.8 133.9,168.5 131.8,175 132.7,175.6 138.3,171.6 139,171.6 144.5,175.6 145.4,175 
		143.3,168.5 	"/>
	<polygon class="st3" points="188.1,167.8 193.6,163.8 193.3,162.7 186.5,162.7 185.9,162.3 183.8,155.8 182.6,155.8 180.5,162.3 
		180,162.7 173.1,162.7 172.8,163.8 178.3,167.8 178.5,168.5 176.4,175 177.3,175.6 182.9,171.6 183.6,171.6 189.1,175.6 190,175 
		187.9,168.5 	"/>
	<polygon class="st3" points="232.7,167.8 238.2,163.8 237.9,162.7 231,162.7 230.5,162.3 228.4,155.8 227.2,155.8 225.1,162.3 
		224.6,162.7 217.7,162.7 217.4,163.8 222.9,167.8 223.1,168.5 221,175 221.9,175.6 227.5,171.6 228.1,171.6 233.7,175.6 234.6,175 
		232.5,168.5 	"/>
	<polygon class="st3" points="76.6,140.3 82.2,136.3 81.8,135.2 75,135.2 74.4,134.8 72.3,128.3 71.2,128.3 69.1,134.8 68.5,135.2 
		61.6,135.2 61.3,136.3 66.8,140.3 67.1,141 64.9,147.5 65.8,148.1 71.4,144.1 72.1,144.1 77.6,148.1 78.5,147.5 76.4,141 	"/>
	<polygon class="st3" points="121.2,140.3 126.8,136.3 126.4,135.2 119.6,135.2 119,134.8 116.9,128.3 115.8,128.3 113.6,134.8 
		113.1,135.2 106.2,135.2 105.9,136.3 111.4,140.3 111.6,141 109.5,147.5 110.4,148.1 116,144.1 116.7,144.1 122.2,148.1 
		123.1,147.5 121,141 	"/>
	<polygon class="st3" points="165.8,140.3 171.4,136.3 171,135.2 164.2,135.2 163.6,134.8 161.5,128.3 160.4,128.3 158.2,134.8 
		157.7,135.2 150.8,135.2 150.5,136.3 156,140.3 156.2,141 154.1,147.5 155,148.1 160.6,144.1 161.3,144.1 166.8,148.1 167.7,147.5 
		165.6,141 	"/>
	<polygon class="st3" points="210.4,140.3 215.9,136.3 215.6,135.2 208.7,135.2 208.2,134.8 206.1,128.3 204.9,128.3 202.8,134.8 
		202.3,135.2 195.4,135.2 195.1,136.3 200.6,140.3 200.8,141 198.7,147.5 199.6,148.1 205.2,144.1 205.9,144.1 211.4,148.1 
		212.3,147.5 210.2,141 	"/>
	<polygon class="st3" points="255,140.3 260.5,136.3 260.2,135.2 253.3,135.2 252.8,134.8 250.7,128.3 249.5,128.3 247.4,134.8 
		246.9,135.2 240,135.2 239.7,136.3 245.2,140.3 245.4,141 243.3,147.5 244.2,148.1 249.7,144.1 250.4,144.1 256,148.1 256.9,147.5 
		254.8,141 	"/>
	<polygon class="st3" points="32,195.7 37.6,191.7 37.2,190.6 30.4,190.6 29.8,190.2 27.7,183.7 26.6,183.7 24.5,190.2 23.9,190.6 
		17.1,190.6 16.7,191.7 22.2,195.7 22.5,196.3 20.3,202.8 21.3,203.5 26.8,199.5 27.5,199.5 33,203.5 33.9,202.8 31.8,196.3 	"/>
	<polygon class="st3" points="54.3,223.2 59.9,219.1 59.5,218.1 52.7,218.1 52.1,217.7 50,211.2 48.9,211.2 46.8,217.7 46.2,218.1 
		39.4,218.1 39,219.1 44.5,223.2 44.8,223.8 42.6,230.3 43.6,231 49.1,227 49.8,227 55.3,231 56.2,230.3 54.1,223.8 	"/>
	<polygon class="st3" points="98.9,223.2 104.5,219.1 104.1,218.1 97.3,218.1 96.7,217.7 94.6,211.2 93.5,211.2 91.4,217.7 
		90.8,218.1 83.9,218.1 83.6,219.1 89.1,223.2 89.3,223.8 87.2,230.3 88.1,231 93.7,227 94.4,227 99.9,231 100.8,230.3 98.7,223.8 	
		"/>
	<polygon class="st3" points="143.5,223.2 149.1,219.1 148.7,218.1 141.9,218.1 141.3,217.7 139.2,211.2 138.1,211.2 135.9,217.7 
		135.4,218.1 128.5,218.1 128.2,219.1 133.7,223.2 133.9,223.8 131.8,230.3 132.7,231 138.3,227 139,227 144.5,231 145.4,230.3 
		143.3,223.8 	"/>
	<polygon class="st3" points="188.1,223.2 193.6,219.1 193.3,218.1 186.5,218.1 185.9,217.7 183.8,211.2 182.6,211.2 180.5,217.7 
		180,218.1 173.1,218.1 172.8,219.1 178.3,223.2 178.5,223.8 176.4,230.3 177.3,231 182.9,227 183.6,227 189.1,231 190,230.3 
		187.9,223.8 	"/>
	<polygon class="st3" points="232.7,223.2 238.2,219.1 237.9,218.1 231,218.1 230.5,217.7 228.4,211.2 227.2,211.2 225.1,217.7 
		224.6,218.1 217.7,218.1 217.4,219.1 222.9,223.2 223.1,223.8 221,230.3 221.9,231 227.5,227 228.1,227 233.7,231 234.6,230.3 
		232.5,223.8 	"/>
	<polygon class="st3" points="76.6,195.7 82.2,191.7 81.8,190.6 75,190.6 74.4,190.2 72.3,183.7 71.2,183.7 69.1,190.2 68.5,190.6 
		61.6,190.6 61.3,191.7 66.8,195.7 67.1,196.3 64.9,202.8 65.8,203.5 71.4,199.5 72.1,199.5 77.6,203.5 78.5,202.8 76.4,196.3 	"/>
	<polygon class="st3" points="121.2,195.7 126.8,191.7 126.4,190.6 119.6,190.6 119,190.2 116.9,183.7 115.8,183.7 113.6,190.2 
		113.1,190.6 106.2,190.6 105.9,191.7 111.4,195.7 111.6,196.3 109.5,202.8 110.4,203.5 116,199.5 116.7,199.5 122.2,203.5 
		123.1,202.8 121,196.3 	"/>
	<polygon class="st3" points="165.8,195.7 171.4,191.7 171,190.6 164.2,190.6 163.6,190.2 161.5,183.7 160.4,183.7 158.2,190.2 
		157.7,190.6 150.8,190.6 150.5,191.7 156,195.7 156.2,196.3 154.1,202.8 155,203.5 160.6,199.5 161.3,199.5 166.8,203.5 
		167.7,202.8 165.6,196.3 	"/>
	<polygon class="st3" points="210.4,195.7 215.9,191.7 215.6,190.6 208.7,190.6 208.2,190.2 206.1,183.7 204.9,183.7 202.8,190.2 
		202.3,190.6 195.4,190.6 195.1,191.7 200.6,195.7 200.8,196.3 198.7,202.8 199.6,203.5 205.2,199.5 205.9,199.5 211.4,203.5 
		212.3,202.8 210.2,196.3 	"/>
	<polygon class="st3" points="255,195.7 260.5,191.7 260.2,190.6 253.3,190.6 252.8,190.2 250.7,183.7 249.5,183.7 247.4,190.2 
		246.9,190.6 240,190.6 239.7,191.7 245.2,195.7 245.4,196.3 243.3,202.8 244.2,203.5 249.7,199.5 250.4,199.5 256,203.5 
		256.9,202.8 254.8,196.3 	"/>
	<polygon class="st3" points="32,251.3 37.6,247.2 37.2,246.2 30.4,246.2 29.8,245.8 27.7,239.3 26.6,239.3 24.5,245.8 23.9,246.2 
		17.1,246.2 16.7,247.2 22.2,251.3 22.5,251.9 20.3,258.4 21.3,259.1 26.8,255.1 27.5,255.1 33,259.1 33.9,258.4 31.8,251.9 	"/>
	<polygon class="st3" points="76.6,251.3 82.2,247.2 81.8,246.2 75,246.2 74.4,245.8 72.3,239.3 71.2,239.3 69.1,245.8 68.5,246.2 
		61.6,246.2 61.3,247.2 66.8,251.3 67.1,251.9 64.9,258.4 65.8,259.1 71.4,255.1 72.1,255.1 77.6,259.1 78.5,258.4 76.4,251.9 	"/>
	<polygon class="st3" points="121.2,251.3 126.8,247.2 126.4,246.2 119.6,246.2 119,245.8 116.9,239.3 115.8,239.3 113.6,245.8 
		113.1,246.2 106.2,246.2 105.9,247.2 111.4,251.3 111.6,251.9 109.5,258.4 110.4,259.1 116,255.1 116.7,255.1 122.2,259.1 
		123.1,258.4 121,251.9 	"/>
	<polygon class="st3" points="165.8,251.3 171.4,247.2 171,246.2 164.2,246.2 163.6,245.8 161.5,239.3 160.4,239.3 158.2,245.8 
		157.7,246.2 150.8,246.2 150.5,247.2 156,251.3 156.2,251.9 154.1,258.4 155,259.1 160.6,255.1 161.3,255.1 166.8,259.1 
		167.7,258.4 165.6,251.9 	"/>
	<polygon class="st3" points="210.4,251.3 215.9,247.2 215.6,246.2 208.7,246.2 208.2,245.8 206.1,239.3 204.9,239.3 202.8,245.8 
		202.3,246.2 195.4,246.2 195.1,247.2 200.6,251.3 200.8,251.9 198.7,258.4 199.6,259.1 205.2,255.1 205.9,255.1 211.4,259.1 
		212.3,258.4 210.2,251.9 	"/>
	<polygon class="st3" points="255,251.3 260.5,247.2 260.2,246.2 253.3,246.2 252.8,245.8 250.7,239.3 249.5,239.3 247.4,245.8 
		246.9,246.2 240,246.2 239.7,247.2 245.2,251.3 245.4,251.9 243.3,258.4 244.2,259.1 249.7,255.1 250.4,255.1 256,259.1 
		256.9,258.4 254.8,251.9 	"/>
</g>
</svg>
